<svg width="32" height="32" viewBox="0 0 32 32" fill="none" xmlns="http://www.w3.org/2000/svg">
<path d="M19 2L26 9.00003H19V2Z" fill="#CCCCCC"/>
<path d="M6 29.9999H26V9.00016H19V2.00012H6V29.9999Z" fill="#ECECEC"/>
<path d="M19 2H6V2.99998H19V2Z" fill="#F9F9F9"/>
<path d="M19 8.99976L26 15.9998V8.99976H19Z" fill="url(#paint0_linear_1394_158)"/>
<path d="M26 28.9779H6V29.9779H26V28.9779Z" fill="#CCCCCC"/>
<g clip-path="url(#clip0_1394_158)">
<circle cx="16" cy="19" r="7" fill="#5933A1" stroke="#1C1C1C" stroke-width="2"/>
<path d="M19.4968 20.1699C19.5753 19.1817 19.626 19.5786 19.7045 18.6797C19.8321 17.1747 18.7583 15.1474 16.7967 14.8029C13.6992 14.2549 12.6357 16.9887 12.2866 18.5871C12.1416 19.251 11.7388 20.1289 11.5046 21.5267C11.1348 23.7479 12.9559 24.7356 15 25C19.0358 25.5219 19.1922 23.3398 19.4258 22.4275C19.6594 21.5152 19.4395 20.8818 19.4968 20.1699ZM14.7914 20.759C13.9037 20.5651 13.6963 19.3123 13.8993 18.3829C14.1024 17.4534 14.8879 16.5646 15.6703 16.7355C16.5228 16.9217 16.7524 18.0953 16.5543 19.0022C16.3453 19.9592 15.6721 20.9513 14.7914 20.759ZM18.0416 20.608C17.3881 20.4652 17.2359 19.5553 17.3815 18.8889C17.5271 18.2225 18.1047 17.5665 18.6786 17.6918C19.3063 17.8289 19.4758 18.6823 19.3318 19.3412C19.1819 20.0276 18.6951 20.7507 18.0416 20.608Z" fill="#5933A1" stroke="#1C1C1C" stroke-width="1.3" stroke-linecap="round" stroke-linejoin="round"/>
</g>
<defs>
<linearGradient id="paint0_linear_1394_158" x1="18.7872" y1="0.835668" x2="23.6019" y2="15.9907" gradientUnits="userSpaceOnUse">
<stop stop-opacity="0.4129"/>
<stop offset="1" stop-color="#F9F9F9" stop-opacity="0"/>
</linearGradient>
<clipPath id="clip0_1394_158">
<rect width="16" height="16" fill="white" transform="translate(8 11)"/>
</clipPath>
</defs>
</svg>
