<svg width="32" height="32" viewBox="0 0 32 32" fill="none" xmlns="http://www.w3.org/2000/svg">
<path d="M6 29.9999H26V9.00016H19V2.00012H6V29.9999Z" fill="#ECECEC"/>
<path d="M19 2H6V2.99998H19V2Z" fill="#F9F9F9"/>
<path d="M19 8.99976L26 15.9998V8.99976H19Z" fill="url(#paint0_linear_1394_148)"/>
<path d="M26 28.9779H6V29.9779H26V28.9779Z" fill="#CCCCCC"/>
<path d="M26.9997 20H4.99988V28.9998H26.9997V20Z" fill="#FF2A2A"/>
<path d="M10.4856 24.8486H8.9046V23.8515H10.4856C10.7299 23.8515 10.9288 23.8117 11.0822 23.7321C11.2356 23.6497 11.3478 23.5361 11.4188 23.3912C11.4899 23.2463 11.5254 23.083 11.5254 22.9012C11.5254 22.7165 11.4899 22.5446 11.4188 22.3855C11.3478 22.2264 11.2356 22.0986 11.0822 22.002C10.9288 21.9054 10.7299 21.8571 10.4856 21.8571H9.34779V27.0603H8.06937V20.8557H10.4856C10.9714 20.8557 11.3876 20.9437 11.7342 21.1199C12.0836 21.2932 12.3507 21.5332 12.5353 21.8401C12.72 22.1469 12.8123 22.4977 12.8123 22.8926C12.8123 23.2932 12.72 23.6398 12.5353 23.9324C12.3507 24.225 12.0836 24.4509 11.7342 24.61C11.3876 24.7691 10.9714 24.8486 10.4856 24.8486ZM15.5993 27.0603H14.2484L14.2569 26.0631H15.5993C15.9345 26.0631 16.2172 25.9878 16.4473 25.8373C16.6774 25.6839 16.8507 25.4608 16.9672 25.1682C17.0865 24.8756 17.1462 24.5219 17.1462 24.1071V23.8046C17.1462 23.4864 17.1121 23.2066 17.0439 22.9651C16.9786 22.7236 16.8806 22.5205 16.7499 22.3557C16.6192 22.1909 16.4587 22.0673 16.2683 21.985C16.078 21.8997 15.8592 21.8571 15.6121 21.8571H14.2229V20.8557H15.6121C16.0269 20.8557 16.4061 20.9267 16.7499 21.0687C17.0965 21.208 17.3962 21.4082 17.649 21.6696C17.9019 21.931 18.0965 22.2435 18.2329 22.6071C18.3721 22.9679 18.4417 23.3699 18.4417 23.8131V24.1071C18.4417 24.5475 18.3721 24.9495 18.2329 25.3131C18.0965 25.6768 17.9019 25.9893 17.649 26.2506C17.399 26.5092 17.0993 26.7094 16.7499 26.8515C16.4033 26.9907 16.0198 27.0603 15.5993 27.0603ZM14.9729 20.8557V27.0603H13.6944V20.8557H14.9729ZM20.6491 20.8557V27.0603H19.3707V20.8557H20.6491ZM23.1207 23.5063V24.5035H20.2996V23.5063H23.1207ZM23.419 20.8557V21.8571H20.2996V20.8557H23.419Z" fill="#FFAAAA"/>
<path d="M19 2L26 9.00003H19V2Z" fill="#CCCCCC"/>
<defs>
<linearGradient id="paint0_linear_1394_148" x1="18.7872" y1="0.835668" x2="23.6019" y2="15.9907" gradientUnits="userSpaceOnUse">
<stop stop-opacity="0.4129"/>
<stop offset="1" stop-color="#F9F9F9" stop-opacity="0"/>
</linearGradient>
</defs>
</svg>
